<?xml version="1.0" encoding="UTF-8"?>
<!-- Herrn Kassels Sakko (Art Direction §5). Liegt über dem Torso und wird NIE getintet —
     der Bankier trägt keine Spielerfarbe, er gehört keiner Seite an. -->
<svg xmlns="http://www.w3.org/2000/svg" viewBox="0 0 96 112" width="96" height="112">
  <defs>
    <clipPath id="jacketClip">
      <path d="M48 13 C64 13 71 24 73 39 C75 55 79 70 79 82 C79 96 66 100 48 100 C30 100 17 96 17 82 C17 70 21 55 23 39 C25 24 32 13 48 13 Z"/>
    </clipPath>
  </defs>
  <g clip-path="url(#jacketClip)">
    <rect x="10" y="10" width="76" height="96" fill="#4A506A"/>
    <!-- Cel-Schatten rechts, harte Kante -->
    <path d="M48 8 H90 V106 H48 Z" fill="#3B4058"/>
    <!-- Hemd und Revers -->
    <path d="M48 12 L30 30 L38 100 H58 L66 30 Z" fill="#FFF8E7"/>
    <path d="M48 12 L28 28 L40 46 Z" fill="#8C93A8" stroke="#1A1024" stroke-width="4" stroke-linejoin="round"/>
    <path d="M48 12 L68 28 L56 46 Z" fill="#8C93A8" stroke="#1A1024" stroke-width="4" stroke-linejoin="round"/>
    <!-- Fliege -->
    <path d="M40 30 L48 36 L40 42 Z M56 30 L48 36 L56 42 Z" fill="#5B1E3A" stroke="#1A1024" stroke-width="4" stroke-linejoin="round"/>
    <!-- Knöpfe -->
    <circle cx="48" cy="62" r="4" fill="#FFC93C" stroke="#1A1024" stroke-width="3"/>
    <circle cx="48" cy="78" r="4" fill="#FFC93C" stroke="#1A1024" stroke-width="3"/>
  </g>
</svg>
